<?xml version="1.0" standalone="no"?>
<!DOCTYPE svg PUBLIC "-//W3C//DTD SVG 1.1//EN" "../../../www.w3.org/Graphics/SVG/1.1/DTD/svg11.dtd" >
<svg xmlns="http://www.w3.org/2000/svg">
<metadata></metadata>
<defs>
<font id="dorsaregular" horiz-adv-x="393" >
<font-face units-per-em="2048" ascent="1638" descent="-410" />
<missing-glyph horiz-adv-x="204" />
<glyph horiz-adv-x="2048" />
<glyph horiz-adv-x="2048" />
<glyph unicode="&#xd;" horiz-adv-x="204" />
<glyph unicode=" "  horiz-adv-x="204" />
<glyph unicode="&#x09;" horiz-adv-x="204" />
<glyph unicode="&#xa0;" horiz-adv-x="204" />
<glyph unicode="!" horiz-adv-x="155" d="M41 0v131h72v-131h-72zM41 1434h72l-13 -1024h-47z" />
<glyph unicode="&#x22;" horiz-adv-x="268" d="M41 1434h72l-4 -308h-64zM160 1434h71l-4 -308h-63z" />
<glyph unicode="#" horiz-adv-x="755" d="M45 414l6 28h160l61 349h-161l6 28h162l55 307h31l-56 -307h223l56 307h30l-55 -307h152l-6 -28h-152l-61 -349h153l-6 -28h-154l-53 -312h-30l53 312h-223l-54 -312h-30l53 312h-160zM242 442h223l61 349h-223z" />
<glyph unicode="$" d="M43 238v196h72v-194q0 -55 13 -83t52 -32v602q-25 27 -49.5 53.5t-44.5 55.5q-43 66 -43 131v235q0 121 137 129v103h31v-103q141 -6 141 -135v-258h-71v256q0 57 -14.5 84t-55.5 31v-518q72 -78 92 -113q49 -78 49 -152v-295q0 -66 -36.5 -95.5t-104.5 -33.5v-102h-31 v102q-137 6 -137 136zM115 977q0 -74 65 -152v482q-39 -4 -52 -32t-13 -81v-217zM211 125q41 4 55.5 31.5t14.5 83.5v270q0 59 -17.5 99t-52.5 83v-567z" />
<glyph unicode="%" horiz-adv-x="743" d="M43 0l625 1024h32l-624 -1024h-33zM49 748v161q0 131 154.5 131t154.5 -127v-170q0 -127 -154.5 -127t-154.5 132zM121 756q0 -59 14.5 -84t63.5 -25t68.5 22.5t19.5 82.5v153q0 59 -19.5 81t-68.5 22t-63.5 -23.5t-14.5 -85.5v-143zM383 117v162q0 131 154.5 131 t154.5 -127v-170q0 -127 -154.5 -127t-154.5 131zM455 125q0 -59 14 -84t63 -25t69 22.5t20 82.5v153q0 59 -19.5 81t-69.5 22q-49 0 -63 -23.5t-14 -85.5v-143z" />
<glyph unicode="&#x26;" horiz-adv-x="401" d="M41 117v573q0 82 65 111q-66 29 -65 117v397q0 131 154.5 131t154.5 -127v-295h-71v289q0 59 -19.5 80.5t-69.5 21.5q-49 0 -63 -23.5t-14 -84.5v-381q0 -57 12 -83t53 -26h101v-31h-93q-41 0 -57 -25.5t-16 -78.5v-559q0 -59 19.5 -82t68.5 -23t63.5 25t14.5 84v489h-43 v31h157v-31h-43v-495q0 -131 -154.5 -131t-154.5 127z" />
<glyph unicode="'" horiz-adv-x="155" d="M41 1434h72l-4 -308h-64z" />
<glyph unicode="(" horiz-adv-x="233" d="M41 -6v1411q0 131 149 131v-31q-49 0 -63 -24.5t-14 -83.5v-1395q0 -59 14 -83.5t63 -24.5v-31q-150 0 -149 131z" />
<glyph unicode=")" horiz-adv-x="233" d="M41 -113q49 0 63.5 25t14.5 84v1401q0 59 -14.5 83.5t-63.5 24.5v31q150 0 149 -131v-1417q0 -131 -149 -131v30z" />
<glyph unicode="*" horiz-adv-x="411" d="M35 1169l137 78l-137 80l14 27l137 -80v160h31v-162l137 82l17 -25l-140 -82l138 -78l-15 -26l-137 80v-158h-31v158l-135 -78z" />
<glyph unicode="+" horiz-adv-x="610" d="M41 614v33h223v275h72v-275h233v-33h-233v-307h-72v307h-223z" />
<glyph unicode="," horiz-adv-x="163" d="M25 -106l43 270h71l-51 -270h-63z" />
<glyph unicode="-" horiz-adv-x="307" d="M41 616v31h223v-31h-223z" />
<glyph unicode="." horiz-adv-x="155" d="M41 0v131h72v-131h-72z" />
<glyph unicode="../../default.htm" horiz-adv-x="425" d="M41 0l305 1536h47l-305 -1536h-47z" />
<glyph unicode="0" d="M41 121v1198q0 127 154.5 127t154.5 -131v-1198q0 -127 -154.5 -127t-154.5 131zM113 127q0 -59 14 -84t63 -25t69 22.5t20 82.5v1184q0 61 -14.5 84.5t-63.5 23.5t-68.5 -21.5t-19.5 -80.5v-1186z" />
<glyph unicode="1" horiz-adv-x="239" d="M41 1391l84 43h72v-1434h-72v1399l-59 -29z" />
<glyph unicode="2" d="M43 0v467q0 162 82 270q23 29 47.5 57.5t46 54t35.5 52.5q27 55 27 127v281q0 59 -17.5 86.5t-67 27.5t-65.5 -27.5t-16 -86.5v-285h-72v287q0 135 154.5 135t154.5 -129v-299q0 -80 -28 -129q-39 -68 -84 -118t-65.5 -82t-35.5 -66q-25 -70 -24 -172v-420h166v379h71 v-410h-309z" />
<glyph unicode="3" d="M41 121v289h72v-283q0 -59 14 -84t63 -25t69 22.5t20 82.5v522q0 53 -16.5 76.5t-53.5 28.5h-96v28h88q49 0 63.5 24.5t14.5 84.5v420q0 61 -14.5 84.5t-63.5 23.5t-68.5 -21.5t-19.5 -80.5v-289h-72v295q0 127 154.5 127t154.5 -131v-436q0 -90 -67 -117q68 -29 67 -111 v-534q0 -127 -154.5 -127t-154.5 131z" />
<glyph unicode="4" horiz-adv-x="440" d="M39 377l289 1057h30v-1026h43v-31h-43v-377h-71v377h-248zM78 408h209v766z" />
<glyph unicode="5" horiz-adv-x="395" d="M41 121v289h72v-283q0 -59 14 -84t63 -25t69 22.5t20 82.5v594q0 55 -16.5 77.5t-57.5 26.5h-146v613h291v-31h-219v-553h82q137 -8 137 -127v-606q0 -127 -154.5 -127t-154.5 131z" />
<glyph unicode="6" d="M41 121v1194q0 131 154.5 131t154.5 -127v-295h-71v289q0 59 -19.5 80.5t-69.5 21.5q-49 0 -63 -23.5t-14 -84.5v-490q37 12 88 12q150 0 149 -131v-581q0 -127 -154.5 -127t-154.5 131zM113 127q0 -59 14 -84t63 -25t69 22.5t20 82.5v567q0 61 -14.5 85t-62.5 24 t-67.5 -17.5t-21.5 -68.5v-586z" />
<glyph unicode="7" horiz-adv-x="401" d="M41 1403v31h317l-161 -1434h-72l158 1403h-242z" />
<glyph unicode="8" d="M41 121v584q0 82 65 110q-66 27 -65 119v385q0 127 154.5 127t154.5 -131v-385q0 -84 -67 -113q68 -29 67 -117v-583q0 -127 -154.5 -127t-154.5 131zM113 127q0 -59 14 -84t63 -25t69 22.5t20 82.5v569q0 61 -14.5 85t-64.5 24t-68.5 -21.5t-18.5 -81.5v-571zM113 940 q0 -59 16 -84t66.5 -23.5t67 25t16.5 78.5v371q0 61 -14.5 84.5t-63.5 23.5t-68.5 -21.5t-19.5 -80.5v-373z" />
<glyph unicode="9" d="M41 117v295h72v-289q0 -59 19.5 -81t68.5 -22t63.5 24t14.5 85v489q-37 -12 -89 -12q-150 0 -149 131v582q0 127 154.5 127t154.5 -131v-1194q0 -131 -154.5 -131t-154.5 127zM113 745q0 -61 14 -84.5t62.5 -23.5t67.5 17.5t22 68.5v586q0 59 -14.5 83.5t-63.5 24.5 t-68.5 -22.5t-19.5 -81.5v-568z" />
<glyph unicode=":" horiz-adv-x="157" d="M41 0v131h72v-131h-72zM41 821v131h72v-131h-72z" />
<glyph unicode=";" horiz-adv-x="182" d="M25 -106l43 270h71l-51 -270h-63zM68 819v131h71v-131h-71z" />
<glyph unicode="&#x3c;" horiz-adv-x="407" d="M41 680l287 344h39l-281 -344l281 -344h-39z" />
<glyph unicode="=" horiz-adv-x="612" d="M41 410v30h532v-30h-532zM41 788v31h532v-31h-532z" />
<glyph unicode="&#x3e;" horiz-adv-x="407" d="M41 336l281 344l-281 344h39l287 -344l-287 -344h-39z" />
<glyph unicode="?" d="M43 1024v287q0 135 154.5 135t154.5 -129v-266q0 -96 -15 -156.5t-62.5 -113t-58.5 -141.5t-11 -230h-51q-2 68 -2 107.5t1 85.5t11 93q14 78 58 126t51.5 104.5t7.5 134.5v248q0 59 -17.5 86.5t-67 27.5t-65.5 -27.5t-16 -86.5v-285h-72zM145 -2v131h72v-131h-72z" />
<glyph unicode="@" horiz-adv-x="876" d="M41 233v560q0 260 111 362q94 90 297 90q248 0 327 -131q39 -63 48.5 -151.5t9.5 -196.5v-774q0 -127 -155 -127t-155 131v8q-35 -14 -88 -14q-150 0 -149 131v399q0 127 159 127q43 0 78 -12v264q0 59 -16 87t-65.5 28t-67 -28t-17.5 -87v-129h-71v137q0 129 154.5 129 t154.5 -135v-899q0 -59 14.5 -83.5t63.5 -24.5t68.5 22.5t19.5 81.5v762q0 125 -10.5 213t-42.5 143q-63 106 -252 107q-199 0 -275 -109q-70 -98 -69 -354v-494q0 -248 67 -352q74 -111 266 -111v-22q-205 0 -299 88q-106 104 -106 364zM358 127q0 -59 14.5 -84t62.5 -25 t68.5 21.5t20.5 79.5v389q0 61 -14 84.5t-64 23.5q-49 0 -68.5 -21.5t-19.5 -80.5v-387z" />
<glyph unicode="A" horiz-adv-x="407" d="M41 0l160 1434h28l142 -1434h-72l-43 471h-135l-51 -471h-29zM125 502h129l-57 637z" />
<glyph unicode="B" d="M41 0v1434h172q66 -6 101.5 -34t35.5 -93v-387q0 -88 -67 -117q68 -29 67 -111v-561q0 -131 -149 -131h-160zM113 29h88q49 0 63.5 24.5t14.5 83.5v549q0 55 -18.5 78.5t-59.5 26.5h-88v-762zM113 819h88q49 0 63.5 24.5t14.5 84.5v372q0 55 -16.5 77t-57.5 26h-92v-584z " />
<glyph unicode="C" d="M41 121v1198q0 127 154.5 127t154.5 -131v-291h-71v283q0 61 -14.5 84.5t-63.5 23.5t-68.5 -21.5t-19.5 -80.5v-1186q0 -59 14 -84t63 -25t69 22.5t20 82.5v287h71v-293q0 -127 -154.5 -127t-154.5 131z" />
<glyph unicode="D" d="M41 0v1434h172q137 -8 137 -127v-1176q0 -131 -149 -131h-160zM113 29h88q49 0 63.5 24.5t14.5 83.5v1163q0 55 -16.5 77t-57.5 26h-92v-1374z" />
<glyph unicode="E" horiz-adv-x="401" d="M41 0v1434h317v-31h-245v-623h204v-30h-204v-719h245v-31h-317z" />
<glyph unicode="F" horiz-adv-x="401" d="M41 0v1434h317v-31h-245v-666h204v-30h-204v-707h-72z" />
<glyph unicode="G" d="M41 121v1198q0 127 154.5 127t154.5 -131v-291h-71v283q0 61 -14.5 84.5t-63.5 23.5t-68.5 -21.5t-19.5 -80.5v-1186q0 -59 14 -84t63 -25t69 22.5t20 82.5v493h-82v31h153v-530q0 -127 -154.5 -127t-154.5 131z" />
<glyph unicode="H" d="M41 0v1434h72v-672h166v672h71v-1434h-71v731h-166v-731h-72z" />
<glyph unicode="I" horiz-adv-x="155" d="M41 0v1434h72v-1434h-72z" />
<glyph unicode="J" d="M41 121v289h72v-283q0 -59 14 -84t63 -25t69 22.5t20 82.5v1280h-132v31h203v-1317q0 -127 -154.5 -127t-154.5 131z" />
<glyph unicode="K" horiz-adv-x="397" d="M41 0v1434h72v-560l172 560h26l-172 -560l215 -874h-71l-170 694v-694h-72z" />
<glyph unicode="L" horiz-adv-x="348" d="M41 0v1434h72v-1403h198v-31h-270z" />
<glyph unicode="M" horiz-adv-x="518" d="M41 0v1434h29l188 -1141l188 1141h29v-1434h-72v997l-131 -792h-28l-131 792v-997h-72z" />
<glyph unicode="N" horiz-adv-x="401" d="M41 0v1434h29l217 -1008v1008h71v-1434h-71v289l-174 811v-1100h-72z" />
<glyph unicode="O" d="M41 121v1198q0 127 154.5 127t154.5 -131v-1198q0 -127 -154.5 -127t-154.5 131zM113 127q0 -59 14 -84t63 -25t69 22.5t20 82.5v1184q0 61 -14.5 84.5t-63.5 23.5t-68.5 -21.5t-19.5 -80.5v-1186z" />
<glyph unicode="P" horiz-adv-x="395" d="M41 0v1434h172q137 -8 137 -127v-469q0 -131 -149 -131h-88v-707h-72zM113 735h88q49 0 63.5 24.5t14.5 84.5v456q0 55 -16.5 77t-57.5 26h-92v-668z" />
<glyph unicode="Q" d="M41 121v1198q0 127 154.5 127t154.5 -131v-1198q0 -119 -141 -127v-195h-29v195q-139 6 -139 131zM113 127q0 -57 12 -82t55 -27v187h29v-187q39 4 54.5 28t15.5 77v1184q0 61 -14.5 84.5t-63.5 23.5t-68.5 -21.5t-19.5 -80.5v-1186z" />
<glyph unicode="R" d="M41 0v1434h172q137 -8 137 -127v-453q0 -90 -67 -117q68 -29 67 -110v-627h-71v618q0 55 -16.5 77t-57.5 26h-92v-721h-72zM113 752h88q49 0 63.5 24.5t14.5 83.5v440q0 55 -16.5 77t-57.5 26h-92v-651z" />
<glyph unicode="S" d="M43 125v285h72v-283q0 -59 16 -87t65.5 -28t67 28t17.5 87v358q0 117 -21 164q-29 70 -71 117t-64.5 73.5t-40.5 57.5q-41 72 -41 156v264q0 129 154.5 129t154.5 -135v-287h-71v285q0 59 -16.5 86.5t-65.5 27.5t-66.5 -27.5t-17.5 -86.5v-246q0 -78 20 -115 q29 -55 71 -100t64.5 -75t40.5 -68q41 -86 41 -203v-383q0 -129 -154.5 -129t-154.5 135z" />
<glyph unicode="T" horiz-adv-x="409" d="M41 1403v31h326v-31h-127v-1403h-72v1403h-127z" />
<glyph unicode="U" d="M41 121v1313h72v-1307q0 -59 14 -84t63 -25t69 22.5t20 82.5v1311h71v-1317q0 -127 -154.5 -127t-154.5 131z" />
<glyph unicode="V" horiz-adv-x="407" d="M41 1434h72l102 -1141l127 1141h29l-160 -1434h-29z" />
<glyph unicode="W" horiz-adv-x="608" d="M41 1434h72l102 -1143l102 917h29l82 -915l127 1141h29l-160 -1434h-29l-86 879l-98 -879h-29z" />
<glyph unicode="X" horiz-adv-x="405" d="M27 0l129 801l-109 633h72l94 -553l113 553h30l-131 -635l137 -799h-71l-121 715l-113 -715h-30z" />
<glyph unicode="Y" horiz-adv-x="403" d="M43 1434h72l108 -736l115 736h31l-131 -818v-616h-72v614z" />
<glyph unicode="Z" horiz-adv-x="403" d="M43 0l238 1403h-213v31h290l-239 -1403h241v-31h-317z" />
<glyph unicode="[" horiz-adv-x="401" d="M41 -102v1638h317v-31h-245v-1577h245v-30h-317z" />
<glyph unicode="\" horiz-adv-x="409" d="M14 1536h47l306 -1536h-48z" />
<glyph unicode="]" horiz-adv-x="401" d="M41 -72h246v1577h-246v31h317v-1638h-317v30z" />
<glyph unicode="^" horiz-adv-x="409" d="M43 645v39l162 135l162 -135v-39l-162 129z" />
<glyph unicode="_" horiz-adv-x="450" d="M41 0v31h369v-31h-369z" />
<glyph unicode="`" horiz-adv-x="364" d="M92 1331h39l70 -225h-33z" />
<glyph unicode="a" d="M43 121v399q0 127 160 127q43 0 78 -12v264q0 59 -16.5 87t-65.5 28t-66.5 -28t-17.5 -87v-129h-72v137q0 129 154.5 129t154.5 -135v-901h-71v4q-35 -14 -88 -14q-150 0 -150 131zM115 127q0 -59 14 -84t61.5 -25t66.5 18.5t24 67.5v396q0 66 -13.5 91t-63.5 25 t-69.5 -21.5t-19.5 -80.5v-387z" />
<glyph unicode="b" d="M41 121v1415h72v-510q35 14 88 14q150 0 149 -131v-792q0 -127 -154.5 -127t-154.5 131zM113 127q0 -59 14 -84t63 -25t69 22.5t20 82.5v778q0 61 -14.5 85t-62.5 24t-68.5 -18.5t-20.5 -73.5v-791z" />
<glyph unicode="c" d="M43 125v782q0 129 154.5 129t154.5 -135v-131h-71v129q0 59 -16.5 87t-65.5 28t-66.5 -28t-17.5 -87v-772q0 -59 16 -87t65.5 -28t67 28t17.5 87v139h71v-147q0 -129 -154.5 -129t-154.5 135z" />
<glyph unicode="d" d="M41 125v782q0 129 158 129q41 0 80 -14v514h71v-1417q0 -129 -154.5 -129t-154.5 135zM113 127q0 -59 16 -87t65.5 -28t67 28t17.5 87v772q0 59 -16.5 87t-66 28t-66.5 -28t-17 -87v-772z" />
<glyph unicode="e" d="M41 125v784q0 127 154.5 127t154.5 -131v-401q-2 -68 -43 -96.5t-102.5 -28.5t-91.5 12v-264q0 -59 16 -87t65.5 -28t67 28t17.5 87v139h71v-147q0 -129 -154.5 -129t-154.5 135zM113 518q0 -63 13 -85.5t63.5 -22.5t70 21.5t19.5 80.5v387q0 59 -14.5 84t-63.5 25 t-68.5 -22.5t-19.5 -82.5v-385z" />
<glyph unicode="f" horiz-adv-x="251" d="M-8 993v31h61v383q0 129 156 129q90 0 104 -76l-26 -6q-12 59 -69.5 59t-75 -27.5t-17.5 -86.5v-375h123v-31h-123v-993h-72v993h-61z" />
<glyph unicode="g" horiz-adv-x="397" d="M41 238q0 65 41 96q-36 45 -36 92q0 42 30 86q-35 33 -35 100v301q0 127 158 127h174v-30h-62q39 -33 39 -101v-301q0 -127 -160 -127q-57 0 -88 15q-25 -35 -24 -56q0 -51 28 -92q39 16 95 17q150 0 149 -132v-516q0 -127 -154.5 -127t-154.5 131v517zM113 231v-503 q0 -59 14 -84t63 -25t69 22.5t20 82.5v501q0 61 -14.5 85t-63.5 24t-68.5 -21.5t-19.5 -81.5zM113 618q0 -59 14 -83.5t63 -24.5t69 22.5t20 81.5v287q0 61 -14.5 85t-63.5 24t-68.5 -21.5t-19.5 -81.5v-289z" />
<glyph unicode="h" d="M41 0v1536h72v-510q35 14 88 14q147 0 149 -125v-915h-71v901q0 61 -14.5 85t-63.5 24t-68.5 -21.5t-19.5 -81.5v-907h-72z" />
<glyph unicode="i" horiz-adv-x="155" d="M41 0v1024h72v-1024h-72zM51 1434h53l-4 -164h-45z" />
<glyph unicode="j" horiz-adv-x="163" d="M-72 -401l11 22q18 -6 43 -6q70 0 69 113v1296h72v-1305q0 -61 -37 -95t-86 -34t-72 9zM61 1434h54l-4 -164h-45z" />
<glyph unicode="k" horiz-adv-x="382" d="M41 0v1536h72v-909l172 395h28l-172 -395l215 -627h-71l-172 502v-502h-72z" />
<glyph unicode="l" horiz-adv-x="155" d="M41 0v1536h72v-1536h-72z" />
<glyph unicode="m" horiz-adv-x="630" d="M41 0v1024h61v-2q39 18 105.5 18t105.5 -34q36 34 120 34h5q150 0 150 -129v-911h-72v901q0 61 -14.5 85t-63.5 24t-68.5 -20.5t-19.5 -80.5v-909h-71v901q0 61 -14.5 85t-64.5 24t-68.5 -20.5t-18.5 -82.5v-907h-72z" />
<glyph unicode="n" d="M41 0v1024h61v-2q39 18 99 18q150 0 149 -129v-911h-71v901q0 61 -14.5 85t-64.5 24t-68.5 -20.5t-18.5 -82.5v-907h-72z" />
<glyph unicode="o" d="M41 121v792q0 127 154.5 127t154.5 -131v-792q0 -127 -154.5 -127t-154.5 131zM113 127q0 -59 14 -84t63 -25t69 22.5t20 82.5v778q0 61 -14.5 85t-63.5 24t-68.5 -21.5t-19.5 -81.5v-780z" />
<glyph unicode="p" d="M41 -410v1434h61v-2q39 18 99 18q150 0 149 -131v-792q0 -127 -160 -127q-47 0 -77 12v-412h-72zM113 127q0 -59 14 -84t63 -25t69 22.5t20 82.5v778q0 61 -14.5 85t-62.5 24t-67.5 -18.5t-21.5 -71.5v-793z" />
<glyph unicode="q" d="M41 121v792q0 127 160 127q53 0 90 -18v2h59v-1434h-71v414q-35 -14 -89 -14q-150 0 -149 131zM113 127q0 -59 14 -84t62.5 -25t66.5 19.5t23 71.5v792q0 61 -14.5 85t-63.5 24t-68.5 -21.5t-19.5 -81.5v-780z" />
<glyph unicode="r" d="M41 0v1024h70v-2q35 14 88 14q152 0 151 -135v-141h-71v139q0 63 -16.5 89t-66 26t-66.5 -28t-17 -87v-899h-72z" />
<glyph unicode="s" d="M43 125v141h72v-139q0 -59 16 -87t65.5 -28t67 28t17.5 87v143q0 129 -64 205q-20 25 -58 59.5t-77 85t-39 123.5v164q0 129 154.5 129t154.5 -135v-129h-71v127q0 59 -16.5 87t-65.5 28t-66.5 -28t-17.5 -87v-147q0 -61 20 -97q29 -45 71 -85t64.5 -65.5t40.5 -58.5 q41 -74 41 -161v-166q0 -129 -154.5 -129t-154.5 135z" />
<glyph unicode="t" horiz-adv-x="331" d="M43 993v31h61v307h72v-307h123v-31h-123v-856q0 -112 69 -112h1q25 0 43 6l8 -23q-23 -8 -72 -8t-85 34t-36 95v864h-61z" />
<glyph unicode="u" d="M41 115v909h72v-901q0 -61 14 -85t61.5 -24t66.5 17.5t24 66.5v926h71v-1024h-61v2q-41 -18 -99 -18q-150 0 -149 131z" />
<glyph unicode="v" horiz-adv-x="374" d="M41 1024h72l73 -780l119 780h31l-156 -1024h-30z" />
<glyph unicode="w" horiz-adv-x="561" d="M41 1024h72l73 -780l99 653h28l62 -655l119 782h30l-155 -1024h-31l-66 608l-92 -608h-30z" />
<glyph unicode="x" horiz-adv-x="405" d="M33 0l127 545l-113 479h72l96 -408l96 408h31l-111 -475l131 -549h-71l-115 475l-110 -475h-33z" />
<glyph unicode="y" horiz-adv-x="432" d="M29 -406l8 23q16 -4 33 -4q49 0 66.5 34t23.5 74l43 281l-160 1022h72l123 -788l120 788h31l-199 -1303q-23 -131 -114 -131h-27q-10 0 -20 4z" />
<glyph unicode="z" horiz-adv-x="401" d="M43 0l236 993h-226v31h305l-237 -993h239v-31h-317z" />
<glyph unicode="{" horiz-adv-x="319" d="M41 702v29q49 0 65.5 24.5t16.5 84.5v569q0 127 160 127v-31q-49 0 -68.5 -21.5t-19.5 -80.5v-572q0 -86 -0C45C33A06" />
<glyph unicode="|" horiz-adv-x="155" d="M41 -102v1638h72v-1638h-72z" />
<glyph unicode="}" horiz-adv-x="319" d="M41 -74q49 0 68.5 21.5t19.5 81.5v571q0 86 64 115q-63 31 -64 116v572q0 59 -19.5 80.5t-68.5 21.5v31q160 0 160 -127v-569q0 -59 16 -84t66 -25v-29q-53 -4 -67.5 -28.5t-14.5 -79.5v-571q0 -127 -160 -127v30z" />
<glyph unicode="~" horiz-adv-x="405" d="M41 614q0 41 24.5 59.5t54.5 18.5t48 -9t33 -19q43 -29 73 -29q43 0 60 29q8 12 8 30h23q-8 -80 -89 -80q-39 0 -68.5 19.5t-46 29t-40.5 9.5q-43 0 -55 -29q-6 -12 -5 -29h-20z" />
<glyph unicode="&#xa1;" horiz-adv-x="155" d="M41 -410l12 1024h47l13 -1024h-72zM41 893v131h72v-131h-72z" />
<glyph unicode="&#xa2;" d="M43 125v782q0 121 135 129v90h31v-90q143 -6 143 -135v-131h-71v129q0 57 -15.5 84t-56.5 31v-1002q41 4 56.5 32t15.5 83v139h71v-147q0 -66 -36.5 -95.5t-106.5 -33.5v-92h-31v92q-135 6 -135 135zM115 127q0 -55 13 -83t50 -32v1000q-37 -4 -50 -32t-13 -81v-772z" />
<glyph unicode="&#xa3;" horiz-adv-x="401" d="M8 100v31h41v1073q0 127 154.5 127t154.5 -131v-291h-71v283q0 61 -14.5 84.5t-63.5 23.5t-68.5 -21.5t-19.5 -80.5v-493h168v-31h-168v-543h198v-31h-311z" />
<glyph unicode="&#xa4;" horiz-adv-x="620" d="M33 461l121 143v318l-121 145l24 20l105 -126q25 80 145.5 79.5t147.5 -79.5l104 126l27 -20l-123 -147v-308l10 -18l113 -133l-25 -21l-104 125q-20 -88 -148.5 -88t-148.5 84l-103 -121zM225 614q0 -59 14.5 -83.5t63.5 -24.5t68.5 22.5t19.5 81.5v297q0 59 -19.5 81 t-68.5 22t-63.5 -23.5t-14.5 -85.5v-287z" />
<glyph unicode="&#xa5;" horiz-adv-x="411" d="M43 334v31h131v147l-4 31h-127v30h121l-113 758h72l106 -725l113 725h33l-123 -758h125v-30h-129l-4 -29v-149h133v-31h-133v-232h-70v232h-131z" />
<glyph unicode="&#xa6;" horiz-adv-x="155" d="M41 -102v716h72v-716h-72zM41 819v717h72v-717h-72z" />
<glyph unicode="&#xa7;" horiz-adv-x="389" d="M45 49h72v-139q0 -59 16.5 -87t65.5 -28t66.5 27.5t17.5 87.5v143q0 92 -26 145.5t-66.5 90.5t-64.5 58.5t-40 45.5q-41 57 -41 129v162q0 135 152 135q35 0 59 -8q-18 43 -54 77t-71 68.5t-60.5 77.5t-25.5 107v157q0 135 154.5 135.5t154.5 -128.5v-138h-71v129 q0 59 -17.5 87t-66.5 28t-65.5 -27.5t-16.5 -87.5v-147q0 -66 18 -98q29 -43 90 -97q59 -59 82 -96q47 -82 47 -166v-176q0 -129 -157 -129h-25q23 -23 53.5 -49.5t59.5 -63.5q70 -90 69 -206v-166q0 -129 -154.5 -129t-154.5 135v141zM117 535q0 -51 13 -88t65.5 -37 t70 27.5t17.5 86.5v164q-8 53 -20.5 81t-62.5 28t-66.5 -28t-16.5 -91v-143z" />
<glyph unicode="&#xa8;" d="M57 1270h56l-4 -164h-48zM281 1270h55l-4 -164h-47z" />
<glyph unicode="&#xa9;" horiz-adv-x="899" d="M41 410v401q4 242 109 338q92 84 307 84q254 0 334 -131q39 -63 49 -151.5t10 -196.5v-287q0 -109 -10.5 -197t-48.5 -151q-80 -131 -334 -131q-215 0 -307 84q-104 96 -109 338zM113 473q0 -256 71 -354q78 -109 281 -109q197 0 260 107q33 55 43 143t10 213v275 q0 125 -10 213t-43 143q-63 106 -260 106q-201 0 -277 -102q-72 -94 -75 -336v-299zM299 324v565q0 135 154.5 135t154.5 -129v-137h-71v129q0 59 -17.5 86.5t-67 27.5t-65.5 -27.5t-16 -86.5v-555q0 -59 17.5 -87t66.5 -28t65.5 27.5t16.5 87.5v139h71v-141 q0 -135 -154.5 -135t-154.5 129z" />
<glyph unicode="&#xaa;" horiz-adv-x="239" d="M41 1092v198q0 63 80 64q23 0 39 -6v133q0 29 -8.5 43t-33 14t-32.5 -14.5t-8 -42.5v-66h-37v70q0 63 77 63t77 -67v-451h-35v4q-16 -10 -43 -10q-76 0 -76 68zM78 1096q0 -31 7 -43.5t30.5 -12.5t33 9.5t11.5 33.5v197q0 35 -6.5 47t-32 12t-34.5 -11t-9 -40v-192z" />
<glyph unicode="&#xab;" horiz-adv-x="641" d="M41 680l287 344h24l-270 -344l270 -344h-24zM276 680l287 344h25l-271 -344l271 -344h-25z" />
<glyph unicode="&#xac;" horiz-adv-x="655" d="M41 616v31h571v-35h-2v-100h-30v104h-539z" />
<glyph unicode="&#xad;" horiz-adv-x="307" d="M41 616v31h223v-31h-223z" />
<glyph unicode="&#xae;" horiz-adv-x="901" d="M43 723v289q4 242 109 338q92 84 307 84q254 0 334 -131q39 -63 49 -151.5t10 -197.5v-174q0 -109 -10.5 -196.5t-48.5 -151.5q-80 -131 -334 -131q-215 0 -307 84q-104 96 -109 338zM115 786q0 -256 69 -354q80 -109 283 -108q197 0 260 106q33 55 43 143.5t10 212.5 v162q0 125 -10 213t-43 144q-63 106 -260 106q-201 0 -279 -102q-70 -94 -73 -336v-187zM309 506v758h172q137 -8 137 -127v-123q0 -90 -67 -117q68 -29 67 -111v-280h-71v272q0 55 -16.5 78t-57.5 27h-92v-377h-72zM381 913h98q43 0 55.5 26t12.5 83v108q0 55 -16.5 77 t-57.5 26h-92v-320z" />
<glyph unicode="&#xb0;" horiz-adv-x="380" d="M68 1303q0 55 37.5 93t93.5 38q55 0 93 -38t38 -93t-38 -93.5t-93 -38.5t-93 38.5t-38 93.5zM100 1303q0 -41 29 -70t69 -29t68.5 29t28.5 70t-28.5 69.5t-68.5 28.5t-69 -28.5t-29 -69.5z" />
<glyph unicode="&#xb1;" horiz-adv-x="614" d="M41 377v31h532v-31h-532zM53 823v33h223v274h72v-274h234v-33h-234v-307h-72v307h-223z" />
<glyph unicode="&#xb2;" horiz-adv-x="180" d="M41 1024v137q0 55 37 92q16 20 25.5 33.5t9.5 36.5v82q0 35 -27 35q-23 0 -23 -35v-82h-22v84q0 39 46 39t46 -37v-88q0 -29 -12 -44t-27 -36q-31 -37 -31 -86v-121h50v109h20v-119h-92z" />
<glyph unicode="&#xb3;" horiz-adv-x="178" d="M41 1063v84h20v-82q0 -31 23 -31q14 0 20.5 6.5t6.5 24.5v149q0 27 -21 29h-29v10h27q23 0 23 31v121q0 31 -23 31q-27 0 -27 -29v-84h-20v86q0 37 45 37t45 -39v-125q0 -27 -20 -35q20 -6 20 -30v-156q0 -35 -45 -35t-45 37z" />
<glyph unicode="&#xb4;" horiz-adv-x="366" d="M162 1106l69 225h39l-75 -225h-33z" />
<glyph unicode="&#xb6;" d="M41 838v469q0 119 137 127h172v-31h-63v-668h63v-28h-63v-707h-72v707h-25q-150 0 -149 131zM113 844q0 -59 14 -84t63 -25h25v668h-29q-41 -4 -57 -26t-16 -77v-456z" />
<glyph unicode="&#xb7;" horiz-adv-x="155" d="M41 688v131h72v-131h-72z" />
<glyph unicode="&#xb8;" horiz-adv-x="178" d="M-57 -401l10 22q18 -6 43 -6q70 0 70 113v272h71v-281q0 -61 -35.5 -95t-86 -34t-72.5 9z" />
<glyph unicode="&#xb9;" horiz-adv-x="139" d="M41 1421l25 13h20v-410h-20v399l-19 -8z" />
<glyph unicode="&#xba;" horiz-adv-x="239" d="M41 1087v398q0 63 77 63t77 -65v-398q0 -35 -20.5 -48t-59.5 -13q-74 0 -74 63zM76 1092q0 -29 7 -41.5t32 -12.5t35 11.5t10 40.5v387q0 31 -7.5 43t-31.5 12q-25 0 -35 -11.5t-10 -39.5v-389z" />
<glyph unicode="&#xbb;" horiz-adv-x="626" d="M41 336l268 344l-268 344h25l286 -344l-286 -344h-25zM276 336l269 344l-269 344h25l287 -344l-287 -344h-25z" />
<glyph unicode="&#xbc;" horiz-adv-x="505" d="M41 1415l37 19h28v-615h-28v600l-25 -14zM78 0l305 1536h47l-305 -1536h-47zM293 162l125 452h12v-438h19v-14h-19v-162h-31v162h-106zM309 176h90v326z" />
<glyph unicode="&#xbd;" horiz-adv-x="528" d="M41 1415l37 19h28v-615h-28v600l-25 -14zM78 0l305 1536h47l-305 -1536h-47zM354 0v199q0 74 52 137q25 27 36 46t11 54v121q0 25 -6.5 36t-28.5 11q-35 0 -35 -47v-123h-29v123q0 57 65.5 57t65.5 -55v-127q0 -41 -16 -64.5t-39 -48.5q-47 -51 -47 -129v-176h70v160h32 v-174h-131z" />
<glyph unicode="&#xbe;" horiz-adv-x="557" d="M41 879v125h29v-121q0 -27 6 -37t27.5 -10t29.5 9t8 36v221q0 43 -30 45h-41v12h39q20 0 26 10.5t6 36.5v178q0 29 -6 38.5t-27.5 9.5t-29.5 -9.5t-8 -33.5v-123h-29v125q0 55 65.5 55t65.5 -57v-187q0 -37 -29 -49q29 -12 29 -47v-229q0 -53 -65.5 -53.5t-65.5 55.5z M141 0l305 1536h48l-306 -1536h-47zM356 162l125 452h13v-438h18v-14h-18v-162h-31v162h-107zM373 176h90v326z" />
<glyph unicode="&#xbf;" d="M-27 -12v-267q0 -129 155 -129t155 136v286h-72v-284q0 -59 -16.5 -87t-65.5 -28t-66.5 27.5t-17.5 87.5v247q0 78 7 134.5t50 103.5q45 55 58 115q14 74 14 152.5t-2 146.5h-51q0 -141 -11.5 -230.5t-58.5 -141.5t-62.5 -112.5t-15.5 -156.5zM109 909v131h71v-131h-71z " />
<glyph unicode="&#xc0;" horiz-adv-x="407" d="M41 0l160 1434h28l142 -1434h-72l-43 471h-135l-51 -471h-29zM121 1720h39l69 -225h-32zM125 502h129l-57 637z" />
<glyph unicode="&#xc1;" horiz-adv-x="407" d="M41 0h29l51 471h135l43 -471h72l-142 1434h-28zM125 502l72 637l57 -637h-129zM201 1495l69 225h39l-76 -225h-32z" />
<glyph unicode="&#xc2;" horiz-adv-x="407" d="M41 0l160 1434h28l142 -1434h-72l-43 471h-135l-51 -471h-29zM94 1495l123 211l123 -211h-25l-98 154l-98 -154h-25zM125 502h129l-57 637z" />
<glyph unicode="&#xc3;" horiz-adv-x="407" d="M41 0h29l51 471h135l43 -471h72l-142 1434h-28zM63 1495q0 39 24 57.5t53.5 18.5t46 -9.5t30.5 -19.5q41 -29 68 -29q39 0 55 29q8 12 8 29h23q-6 -76 -84 -76q-37 0 -65.5 19.5t-43 28.5t-37.5 9q-39 0 -51 -28q-6 -12 -4 -29h-23zM125 502l72 637l57 -637h-129z" />
<glyph unicode="&#xc4;" horiz-adv-x="407" d="M41 0h29l51 471h135l43 -471h72l-142 1434h-28zM78 1659h55l-4 -164h-47zM125 502l72 637l57 -637h-129zM301 1659h55l-4 -164h-47z" />
<glyph unicode="&#xc5;" horiz-adv-x="407" d="M41 0l160 1434h28l142 -1434h-72l-43 471h-135l-51 -471h-29zM86 1626q0 55 37 92t92 37t92 -37t37 -92t-37 -92t-92 -37t-92 37t-37 92zM117 1626q0 -41 28.5 -69.5t68.5 -28.5t68.5 28.5t28.5 69.5t-28.5 69.5t-68.5 28.5t-68.5 -28.5t-28.5 -69.5zM125 502h129 l-57 637z" />
<glyph unicode="&#xc6;" horiz-adv-x="559" d="M41 0l160 1434h313v-31h-246v-623h205v-30h-205v-719h246v-31h-317v471h-76l-51 -471h-29zM125 502h72v633z" />
<glyph unicode="&#xc7;" horiz-adv-x="397" d="M45 121v1198q0 127 154.5 127t154.5 -131v-291h-71v283q0 61 -14.5 84.5t-63.5 23.5t-68.5 -21.5t-19.5 -80.5v-1186q0 -59 14 -84t64 -25q49 0 68.5 22.5t19.5 82.5v287h71v-293q0 -111 -114 -123v-275q0 -61 -36 -95t-86 -34t-73 9l10 22q18 -6 43 -6q70 0 70 113v264 q-123 8 -123 129z" />
<glyph unicode="&#xc8;" horiz-adv-x="401" d="M41 0v1434h317v-31h-245v-623h204v-30h-204v-719h245v-31h-317zM125 1720h39l69 -225h-32z" />
<glyph unicode="&#xc9;" horiz-adv-x="401" d="M41 0h317v31h-245v719h204v30h-204v623h245v31h-317v-1434zM197 1495l69 225h39l-76 -225h-32z" />
<glyph unicode="&#xca;" horiz-adv-x="401" d="M41 0v1434h317v-31h-245v-623h204v-30h-204v-719h245v-31h-317zM78 1495l123 211l123 -211h-25l-98 154l-99 -154h-24z" />
<glyph unicode="&#xcb;" horiz-adv-x="401" d="M41 0h317v31h-245v719h204v30h-204v623h245v31h-317v-1434zM61 1659h56l-4 -164h-47zM285 1659h55l-4 -164h-47z" />
<glyph unicode="&#xcc;" horiz-adv-x="155" d="M-20 1720h38l70 -225h-33zM41 0v1434h72v-1434h-72z" />
<glyph unicode="&#xcd;" horiz-adv-x="155" d="M41 0h72v1434h-72v-1434zM61 1495l70 225h39l-76 -225h-33z" />
<glyph unicode="&#xce;" horiz-adv-x="155" d="M-45 1495l123 211l123 -211h-25l-98 154l-98 -154h-25zM41 0v1434h72v-1434h-72z" />
<glyph unicode="&#xcf;" horiz-adv-x="155" d="M-61 1659h55l-4 -164h-47zM41 0h72v1434h-72v-1434zM162 1659h55l-4 -164h-47z" />
<glyph unicode="&#xd0;" horiz-adv-x="409" d="M8 786v31h49v617h172q137 -8 138 -127v-1176q0 -131 -150 -131h-160v786h-49zM129 29h88q49 0 63.5 24.5t14.5 83.5v1163q0 55 -16.5 77t-57.5 26h-92v-586h102v-31h-102v-757z" />
<glyph unicode="&#xd1;" horiz-adv-x="407" d="M41 0h72v1100l174 -811v-289h71v1434h-71v-1008l-217 1008h-29v-1434zM49 1495q0 39 23.5 57.5t53.5 18.5t46 -9.5t31 -19.5q41 -29 67 -29q39 0 56 29q8 12 8 29h22q-6 -76 -84 -76q-35 0 -64.5 19.5t-43.5 28.5t-37 9q-57 0 -57 -57h-21z" />
<glyph unicode="&#xd2;" d="M41 121v1198q0 127 154.5 127t154.5 -131v-1198q0 -127 -154.5 -127t-154.5 131zM109 1720h38l70 -225h-33zM113 127q0 -59 14 -84t63 -25t69 22.5t20 82.5v1184q0 61 -14.5 84.5t-63.5 23.5t-68.5 -21.5t-19.5 -80.5v-1186z" />
<glyph unicode="&#xd3;" d="M41 121q0 -131 154.5 -131t154.5 127v1198q0 131 -154.5 131t-154.5 -127v-1198zM113 127v1186q0 59 19.5 80.5t68.5 21.5t63.5 -23.5t14.5 -84.5v-1184q0 -59 -19.5 -82t-69.5 -23q-49 0 -63 25t-14 84zM190 1495l70 225h39l-76 -225h-33z" />
<glyph unicode="&#xd4;" d="M41 121v1198q0 127 154.5 127t154.5 -131v-1198q0 -127 -154.5 -127t-154.5 131zM74 1495l123 211l122 -211h-24l-98 154l-99 -154h-24zM113 127q0 -59 14 -84t63 -25t69 22.5t20 82.5v1184q0 61 -14.5 84.5t-63.5 23.5t-68.5 -21.5t-19.5 -80.5v-1186z" />
<glyph unicode="&#xd5;" horiz-adv-x="401" d="M41 121q0 -131 154.5 -131t154.5 127v1198q0 131 -154.5 131t-154.5 -127v-1198zM43 1495q0 39 23.5 57.5t53.5 18.5t46 -9.5t31 -19.5q41 -29 67 -29q39 0 55 29q8 12 9 29h22q-6 -76 -84 -76q-37 0 -65.5 19.5t-43 28.5t-36.5 9q-39 0 -51 -28q-6 -12 -4 -29h-23z M113 127v1186q0 59 19.5 80.5t68.5 21.5t63.5 -23.5t14.5 -84.5v-1184q0 -59 -19.5 -82t-69.5 -23q-49 0 -63 25t-14 84z" />
<glyph unicode="&#xd6;" d="M41 121q0 -131 154.5 -131t154.5 127v1198q0 131 -154.5 131t-154.5 -127v-1198zM57 1659h56l-4 -164h-48zM113 127v1186q0 59 19.5 80.5t68.5 21.5t63.5 -23.5t14.5 -84.5v-1184q0 -59 -19.5 -82t-69.5 -23q-49 0 -63 25t-14 84zM281 1659h55l-4 -164h-47z" />
<glyph unicode="&#xd7;" horiz-adv-x="501" d="M41 961l27 16l182 -318l182 318l27 -16l-193 -332l191 -328l-27 -16l-180 311l-180 -311l-27 16l188 328z" />
<glyph unicode="&#xd8;" d="M27 0l16 84v22q0 10 2 21v1192q0 127 160 127q88 0 125 -49l6 37h31l-19 -80q6 -43 6 -56v-1181q0 -127 -159 -127q-98 0 -129 55l-11 -45h-28zM117 127q0 -59 14.5 -84t63.5 -25t68.5 22.5t19.5 82.5v928l-166 -768v-156zM117 416l166 768v123q0 61 -14.5 84.5 t-63.5 23.5t-68.5 -21.5t-19.5 -80.5v-897z" />
<glyph unicode="&#xd9;" d="M41 121v1313h72v-1307q0 -59 14 -84t63 -25t69 22.5t20 82.5v1311h71v-1317q0 -127 -154.5 -127t-154.5 131zM111 1720h39l69 -225h-33z" />
<glyph unicode="&#xda;" d="M43 121q0 -131 154.5 -131t154.5 127v1317h-71v-1311q0 -59 -19.5 -82t-68.5 -23t-63.5 25t-14.5 84v1307h-72v-1313zM162 1495l69 225h39l-75 -225h-33z" />
<glyph unicode="&#xdb;" d="M41 121v1313h72v-1307q0 -59 14 -84t63 -25t69 22.5t20 82.5v1311h71v-1317q0 -127 -154.5 -127t-154.5 131zM74 1495l123 211l122 -211h-24l-98 154l-99 -154h-24z" />
<glyph unicode="&#xdc;" d="M41 121q0 -131 154.5 -131t154.5 127v1317h-71v-1311q0 -59 -19.5 -82t-69.5 -23q-49 0 -63 25t-14 84v1307h-72v-1313zM57 1659h56l-4 -164h-48zM281 1659h55l-4 -164h-47z" />
<glyph unicode="&#xdd;" horiz-adv-x="403" d="M43 1434l123 -820v-614h72v616l131 818h-31l-115 -736l-108 736h-72zM205 1495l69 225h39l-75 -225h-33z" />
<glyph unicode="&#xde;" d="M41 0v1434h72v-330h100q137 -8 137 -127v-469q0 -131 -149 -131h-88v-377h-72zM113 406h88q49 0 63.5 24.5t14.5 83.5v457q0 55 -16.5 76.5t-57.5 25.5h-92v-667z" />
<glyph unicode="&#xdf;" horiz-adv-x="659" d="M-8 991v33h61v377q0 135 154.5 135t154.5 -129v-657q0 -63 21 -95q33 -49 74 -84.5t64.5 -61.5t43.5 -58q43 -74 43 -168v-166q0 -129 -154.5 -129t-154.5 135v141h72v-139q0 -59 16 -87t65.5 -28t67 28t17.5 87v143q0 92 -28 145.5t-82 101.5t-95 97.5t-41 128.5v658 q0 59 -17.5 86.5t-66.5 27.5t-65.5 -27.5t-16.5 -86.5v-1399h-72v991h-61z" />
<glyph unicode="&#xe0;" d="M43 121v399q0 127 160 127q43 0 78 -12v264q0 59 -16.5 87t-65.5 28t-66.5 -28t-17.5 -87v-129h-72v137q0 129 154.5 129t154.5 -135v-901h-71v4q-35 -14 -88 -14q-150 0 -150 131zM111 1331h39l69 -225h-33zM115 127q0 -59 14 -84t61.5 -25t66.5 18.5t24 67.5v396 q0 66 -13.5 91t-63.5 25t-69.5 -21.5t-19.5 -80.5v-387z" />
<glyph unicode="&#xe1;" d="M43 121q0 -131 150 -131q53 0 88 14v-4h71v901q0 135 -154.5 135t-154.5 -129v-137h72v129q0 59 17.5 87t66.5 28t65.5 -28t16.5 -87v-264q-35 12 -78 12q-160 0 -160 -127v-399zM115 127v387q0 59 19.5 80.5t69.5 21.5t63.5 -25.5t13.5 -90.5v-396q-5 -49 -24 -67.5 t-66.5 -18.5t-61.5 25t-14 84zM197 1106l69 225h39l-76 -225h-32z" />
<glyph unicode="&#xe2;" d="M43 121v399q0 127 160 127q43 0 78 -12v264q0 59 -16.5 87t-65.5 28t-66.5 -28t-17.5 -87v-129h-72v137q0 129 154.5 129t154.5 -135v-901h-71v4q-35 -14 -88 -14q-150 0 -150 131zM74 1106l123 211l122 -211h-24l-98 154l-99 -154h-24zM115 127q0 -59 14 -84t61.5 -25 t66.5 18.5t24 67.5v396q0 66 -13.5 91t-63.5 25t-69.5 -21.5t-19.5 -80.5v-387z" />
<glyph unicode="&#xe3;" horiz-adv-x="401" d="M43 121q0 -131 150 -131q53 0 88 14v-4h71v901q0 135 -154.5 135t-154.5 -129v-137h72v129q0 59 17.5 87t66.5 28t65.5 -28t16.5 -87v-264q-35 12 -78 12q-160 0 -160 -127v-399zM43 1126q0 39 23.5 57.5t53.5 18.5t46 -9t31 -19q41 -29 67 -29q39 0 55 29q8 12 9 28h22 q-6 -76 -84 -76q-37 0 -65.5 19.5t-43 29t-36.5 9.5q-39 0 -51 -29q-6 -12 -4 -29h-23zM115 127v387q0 59 19.5 80.5t69.5 21.5t63.5 -25.5t13.5 -90.5v-396q-5 -49 -24 -67.5t-66.5 -18.5t-61.5 25t-14 84z" />
<glyph unicode="&#xe4;" d="M43 121q0 -131 150 -131q53 0 88 14v-4h71v901q0 135 -154.5 135t-154.5 -129v-137h72v129q0 59 17.5 87t66.5 28t65.5 -28t16.5 -87v-264q-35 12 -78 12q-160 0 -160 -127v-399zM57 1270h56l-4 -164h-48zM115 127v387q0 59 19.5 80.5t69.5 21.5t63.5 -25.5t13.5 -90.5 v-396q-5 -49 -24 -67.5t-66.5 -18.5t-61.5 25t-14 84zM281 1270h55l-4 -164h-47z" />
<glyph unicode="&#xe5;" horiz-adv-x="395" d="M43 121v399q0 127 160 127q43 0 78 -12v264q0 59 -16.5 87t-65.5 28t-66.5 -28t-17.5 -87v-129h-72v137q0 129 154.5 129t154.5 -135v-901h-71v4q-35 -14 -88 -14q-150 0 -150 131zM78 1237q0 55 37 92t92 37t92 -37t37 -92t-37 -92t-92 -37t-92 37t-37 92zM109 1237 q0 -41 27.5 -69.5t68.5 -28.5t69.5 28.5t28.5 69.5t-28.5 69.5t-69.5 28.5t-68.5 -28.5t-27.5 -69.5zM115 127q0 -59 14 -84t61.5 -25t66.5 18.5t24 67.5v396q0 66 -13.5 91t-63.5 25t-69.5 -21.5t-19.5 -80.5v-387z" />
<glyph unicode="&#xe6;" horiz-adv-x="632" d="M43 121v399q0 127 160 127q43 0 78 -12v272q-2 55 -19.5 81t-64.5 26t-64.5 -28t-17.5 -87v-129h-72v137q0 129 158 129q74 0 114 -37q37 37 125 37q150 0 150 -131v-401q-4 -125 -160 -125q-47 0 -78 12v-282q2 -51 19.5 -74t64.5 -23t64.5 28t17.5 87v139h72v-147 q0 -129 -158 -129q-76 0 -115 35q-39 -35 -124 -35q-150 0 -150 131zM115 127q0 -59 14 -84t62.5 -25t68 19.5t21.5 73.5v395q0 63 -14.5 86.5t-63.5 23.5t-68.5 -21.5t-19.5 -80.5v-387zM352 496q2 -47 17.5 -66.5t62.5 -19.5t66.5 21.5t19.5 80.5v387q0 59 -14.5 84 t-62.5 25t-68.5 -21.5t-20.5 -77.5v-413z" />
<glyph unicode="&#xe7;" horiz-adv-x="397" d="M45 -401l10 22q18 -6 43 -6q70 0 70 113v264q-121 12 -121 133v782q0 129 154.5 129t154.5 -135v-131h-71v129q0 59 -16.5 87t-65.5 28t-66.5 -28t-17.5 -87v-772q0 -59 16.5 -87t65.5 -28t66.5 28t17.5 87v139h71v-147q0 -113 -116 -125v-275q0 -61 -36 -95t-86 -34 t-73 9z" />
<glyph unicode="&#xe8;" d="M41 125v784q0 127 154.5 127t154.5 -131v-401q-2 -68 -43 -96.5t-102.5 -28.5t-91.5 12v-264q0 -59 16 -87t65.5 -28t67 28t17.5 87v139h71v-147q0 -129 -154.5 -129t-154.5 135zM111 1331h39l69 -225h-33zM113 518q0 -63 13 -85.5t63.5 -22.5t70 21.5t19.5 80.5v387 q0 59 -14.5 84t-63.5 25t-68.5 -22.5t-19.5 -82.5v-385z" />
<glyph unicode="&#xe9;" d="M41 125q0 -135 154.5 -135t154.5 129v147h-71v-139q0 -59 -17.5 -87t-67 -28t-65.5 28t-16 87v264q31 -12 92 -12q141 0 145 125v401q0 131 -154.5 131t-154.5 -127v-784zM113 518v385q0 59 19.5 82t68.5 23t63.5 -25t14.5 -84v-387q0 -59 -19.5 -80.5t-70 -21.5 t-63.5 22.5t-13 85.5zM186 1106l70 225h39l-76 -225h-33z" />
<glyph unicode="&#xea;" d="M41 125v784q0 127 154.5 127t154.5 -131v-401q-2 -68 -43 -96.5t-102.5 -28.5t-91.5 12v-264q0 -59 16 -87t65.5 -28t67 28t17.5 87v139h71v-147q0 -129 -154.5 -129t-154.5 135zM74 1106l123 211l122 -211h-24l-98 154l-99 -154h-24zM113 518q0 -63 13 -85.5t63.5 -22.5 t70 21.5t19.5 80.5v387q0 59 -14.5 84t-63.5 25t-68.5 -22.5t-19.5 -82.5v-385z" />
<glyph unicode="&#xeb;" d="M41 125q0 -135 154.5 -135t154.5 129v147h-71v-139q0 -59 -17.5 -87t-67 -28t-65.5 28t-16 87v264q31 -12 92 -12q141 0 145 125v401q0 131 -154.5 131t-154.5 -127v-784zM57 1270h56l-4 -164h-48zM113 518v385q0 59 19.5 82t68.5 23t63.5 -25t14.5 -84v-387 q0 -59 -19.5 -80.5t-70 -21.5t-63.5 22.5t-13 85.5zM281 1270h55l-4 -164h-47z" />
<glyph unicode="&#xec;" horiz-adv-x="155" d="M-20 1331h38l70 -225h-33zM41 0v1024h72v-1024h-72z" />
<glyph unicode="&#xed;" horiz-adv-x="155" d="M41 0v1024h72v-1024h-72zM63 1106l70 225h39l-76 -225h-33z" />
<glyph unicode="&#xee;" horiz-adv-x="249" d="M2 1106l123 211l123 -211h-25l-98 154l-98 -154h-25zM88 0v1024h72v-1024h-72z" />
<glyph unicode="&#xef;" horiz-adv-x="286" d="M4 1270h55l-4 -164h-47zM102 0v1024h72v-1024h-72zM227 1270h56l-4 -164h-48z" />
<glyph unicode="&#xf0;" horiz-adv-x="403" d="M41 121v788q0 131 149 131q53 0 89 -14v373q0 20 -3 28l-100 -88l-16 17l112 98q-12 59 -79 59v23q88 0 124 -41l54 45l14 -16l-53 -47q18 -29 18 -70v-1290q0 -127 -154.5 -127t-154.5 131zM113 127q0 -59 14 -84t63 -25t69 22.5t20 82.5v784q0 59 -19.5 81t-69.5 22 q-49 0 -63 -23.5t-14 -85.5v-774z" />
<glyph unicode="&#xf1;" horiz-adv-x="403" d="M41 0v1024h61v-2q39 18 99 18q150 0 149 -129v-911h-71v901q0 61 -14.5 85t-64.5 24t-68.5 -20.5t-18.5 -82.5v-907h-72zM51 1126q0 39 23.5 57.5t53.5 18.5t46 -9t31 -19q41 -29 67 -29q39 0 56 29q8 12 8 28h22q-6 -76 -84 -76q-37 0 -65.5 19.5t-42.5 29t-37 9.5 q-57 0 -57 -58h-21z" />
<glyph unicode="&#xf2;" d="M41 121v792q0 127 154.5 127t154.5 -131v-792q0 -127 -154.5 -127t-154.5 131zM106 1331h39l70 -225h-33zM113 127q0 -59 14 -84t63 -25t69 22.5t20 82.5v778q0 61 -14.5 85t-63.5 24t-68.5 -21.5t-19.5 -81.5v-780z" />
<glyph unicode="&#xf3;" d="M41 121q0 -131 154.5 -131t154.5 127v792q0 131 -154.5 131t-154.5 -127v-792zM113 127v780q0 59 19.5 81t68.5 22t63.5 -23.5t14.5 -85.5v-778q0 -59 -19.5 -82t-69.5 -23q-49 0 -63 25t-14 84zM184 1106l70 225h39l-76 -225h-33z" />
<glyph unicode="&#xf4;" d="M41 121v792q0 127 154.5 127t154.5 -131v-792q0 -127 -154.5 -127t-154.5 131zM74 1106l123 211l122 -211h-24l-98 154l-99 -154h-24zM113 127q0 -59 14 -84t63 -25t69 22.5t20 82.5v778q0 61 -14.5 85t-63.5 24t-68.5 -21.5t-19.5 -81.5v-780z" />
<glyph unicode="&#xf5;" horiz-adv-x="401" d="M41 121q0 -131 154.5 -131t154.5 127v792q0 131 -154.5 131t-154.5 -127v-792zM45 1126q0 41 23.5 58.5t52.5 17.5t45 -9t31 -19q41 -29 65 -29q41 0 57 29q8 12 9 28h24q-6 -76 -86 -76q-37 0 -64.5 19.5t-42 29t-36.5 9.5q-57 0 -57 -58h-21zM113 127v780q0 59 19.5 81 t68.5 22t63.5 -23.5t14.5 -85.5v-778q0 -59 -19.5 -82t-69.5 -23q-49 0 -63 25t-14 84z" />
<glyph unicode="&#xf6;" d="M41 121q0 -131 154.5 -131t154.5 127v792q0 131 -154.5 131t-154.5 -127v-792zM57 1270h56l-4 -164h-48zM113 127v780q0 59 19.5 81t68.5 22t63.5 -23.5t14.5 -85.5v-778q0 -59 -19.5 -82t-69.5 -23q-49 0 -63 25t-14 84zM281 1270h55l-4 -164h-47z" />
<glyph unicode="&#xf7;" horiz-adv-x="616" d="M41 616h532v31h-532v-31zM262 301v131h72v-131h-72zM262 819v131h72v-131h-72z" />
<glyph unicode="&#xf8;" horiz-adv-x="415" d="M25 0l24 74q-4 23 0 47l4 88v704q0 127 160 127q98 0 131 -63l16 47h31l-24 -74v-39l-5 -49v-745q0 -70 -40.5 -98.5t-131 -28.5t-116.5 61l-19 -51h-30zM125 127q0 -59 14.5 -84t63.5 -25t68.5 22.5t19.5 82.5v594l-166 -506v-84zM125 305l166 506v90q0 61 -14.5 85 t-63.5 24t-68.5 -21.5t-19.5 -81.5v-602z" />
<glyph unicode="&#xf9;" d="M41 115v909h72v-901q0 -61 14 -85t61.5 -24t66.5 17.5t24 66.5v926h71v-1024h-61v2q-41 -18 -99 -18q-150 0 -149 131zM111 1331h39l69 -225h-33z" />
<glyph unicode="&#xfa;" d="M41 115v909h72v-901q0 -61 14 -85t61.5 -24t66.5 17.5t24 66.5v926h71v-1024h-61v2q-41 -18 -99 -18q-150 0 -149 131zM186 1106l70 225h39l-76 -225h-33z" />
<glyph unicode="&#xfb;" d="M41 115v909h72v-901q0 -61 14 -85t61.5 -24t66.5 17.5t24 66.5v926h71v-1024h-61v2q-41 -18 -99 -18q-150 0 -149 131zM74 1106l123 211l122 -211h-24l-98 154l-99 -154h-24z" />
<glyph unicode="&#xfc;" d="M41 115v909h72v-901q0 -61 14 -85t61.5 -24t66.5 17.5t24 66.5v926h71v-1024h-61v2q-41 -18 -99 -18q-150 0 -149 131zM57 1270h56l-4 -164h-48zM281 1270h55l-4 -164h-47z" />
<glyph unicode="&#xfd;" horiz-adv-x="432" d="M29 -406q10 -4 20 -4h27q92 0 114 131l199 1303h-31l-120 -788l-123 788h-72l160 -1022l-43 -281q-6 -41 -23.5 -74.5t-66.5 -33.5q-16 0 -33 4zM209 1106l70 225h38l-75 -225h-33z" />
<glyph unicode="&#xfe;" horiz-adv-x="395" d="M41 -410v1946h72v-510q35 14 88 14q150 0 149 -131v-792q0 -127 -160 -127q-47 0 -77 12v-412h-72zM113 109q2 -49 16 -70t62.5 -21t68 22.5t19.5 82.5v778q0 61 -14.5 85t-63.5 24t-68.5 -21.5t-19.5 -81.5v-798z" />
<glyph unicode="&#xff;" horiz-adv-x="432" d="M29 -406q10 -4 20 -4h27q92 0 114 131l199 1303h-31l-120 -788l-123 788h-72l160 -1022l-43 -281q-6 -41 -23.5 -74.5t-66.5 -33.5q-16 0 -33 4zM90 1270h55l-4 -164h-47zM313 1270h56l-4 -164h-48z" />
<glyph unicode="&#x152;" horiz-adv-x="641" d="M41 121v1198q0 127 160 127q47 0 82 -12h313v-31h-246v-623h205v-30h-205v-719h246v-31h-317v2q-37 -12 -89 -12q-150 0 -149 131zM113 127q0 -59 14 -84t61.5 -25t66.5 18.5t24 67.5v1225q-4 47 -18.5 66.5t-61.5 19.5t-66.5 -21.5t-19.5 -80.5v-1186z" />
<glyph unicode="&#x153;" horiz-adv-x="630" d="M41 121v792q0 127 160 127q80 0 116 -36q39 33 121 32q150 0 150 -131v-401q-2 -68 -43 -96.5t-102.5 -28.5t-92.5 12v-264q0 -59 16.5 -87t65.5 -28t66.5 28t17.5 87v139h72v-147q0 -129 -158 -129q-76 0 -115 35q-37 -35 -125 -35q-150 0 -149 131zM113 127 q0 -59 14 -84t63 -25t69 22.5t20 84.5v797q-4 49 -18.5 68.5t-62.5 19.5t-66.5 -21.5t-18.5 -81.5v-780zM350 504q2 -53 16.5 -73.5t62.5 -20.5t67.5 21.5t19.5 80.5v387q0 59 -14.5 84t-62.5 25t-67.5 -20.5t-21.5 -78.5v-405z" />
<glyph unicode="&#x178;" horiz-adv-x="403" d="M43 1434l123 -820v-614h72v616l131 818h-31l-115 -736l-108 736h-72zM84 1679h55l-4 -163h-47zM307 1679h55l-4 -163h-47z" />
<glyph unicode="&#x2c6;" d="M74 1106l123 211l122 -211h-24l-98 154l-99 -154h-24z" />
<glyph unicode="&#x2dc;" horiz-adv-x="389" d="M41 1126q0 39 23.5 57.5t53 18.5t46 -9t31.5 -19q41 -29 67 -29q39 0 55 29q8 12 9 28h22q-6 -76 -84 -76q-37 0 -65.5 19.5t-43 29t-36.5 9.5q-57 0 -58 -58h-20z" />
<glyph unicode="&#x2000;" horiz-adv-x="877" />
<glyph unicode="&#x2001;" horiz-adv-x="1755" />
<glyph unicode="&#x2002;" horiz-adv-x="877" />
<glyph unicode="&#x2003;" horiz-adv-x="1755" />
<glyph unicode="&#x2004;" horiz-adv-x="585" />
<glyph unicode="&#x2005;" horiz-adv-x="438" />
<glyph unicode="&#x2006;" horiz-adv-x="292" />
<glyph unicode="&#x2007;" horiz-adv-x="292" />
<glyph unicode="&#x2008;" horiz-adv-x="219" />
<glyph unicode="&#x2009;" horiz-adv-x="351" />
<glyph unicode="&#x200a;" horiz-adv-x="97" />
<glyph unicode="&#x2010;" horiz-adv-x="307" d="M41 616v31h223v-31h-223z" />
<glyph unicode="&#x2011;" horiz-adv-x="307" d="M41 616v31h223v-31h-223z" />
<glyph unicode="&#x2012;" horiz-adv-x="307" d="M41 616v31h223v-31h-223z" />
<glyph unicode="&#x2013;" horiz-adv-x="555" d="M41 616v31h471v-31h-471z" />
<glyph unicode="&#x2014;" horiz-adv-x="657" d="M41 616v31h573v-31h-573z" />
<glyph unicode="&#x2018;" horiz-adv-x="219" d="M47 1126l57 308h31l-8 -195h43l8 -113h-131z" />
<glyph unicode="&#x2019;" horiz-adv-x="219" d="M47 1434h131l-57 -308h-31l8 195h-43z" />
<glyph unicode="&#x201a;" horiz-adv-x="219" d="M47 113h131l-57 -308h-31l8 195h-43z" />
<glyph unicode="&#x201c;" horiz-adv-x="405" d="M47 1126l57 308h31l-8 -195h43l8 -113h-131zM244 1126l57 308h31l-8 -195h43l8 -113h-131z" />
<glyph unicode="&#x201d;" horiz-adv-x="405" d="M47 1434h131l-57 -308h-31l8 195h-43zM244 1434h131l-58 -308h-30l8 195h-43z" />
<glyph unicode="&#x201e;" horiz-adv-x="405" d="M47 113h131l-57 -308h-31l8 195h-43zM244 113h131l-58 -308h-30l8 195h-43z" />
<glyph unicode="&#x2022;" horiz-adv-x="583" d="M41 774q0 104 72.5 177t177.5 73q104 0 177 -72.5t73 -177.5q0 -104 -73 -177t-177 -73t-177 73t-73 177z" />
<glyph unicode="&#x2026;" horiz-adv-x="483" d="M41 0v131h72v-131h-72zM205 0v131h71v-131h-71zM369 0v131h71v-131h-71z" />
<glyph unicode="&#x202f;" horiz-adv-x="351" />
<glyph unicode="&#x2039;" horiz-adv-x="405" d="M41 680l287 344h24l-270 -344l270 -344h-24z" />
<glyph unicode="&#x203a;" horiz-adv-x="407" d="M41 336l268 344l-268 344h27l286 -344l-286 -344h-27z" />
<glyph unicode="&#x205f;" horiz-adv-x="438" />
<glyph unicode="&#x20ac;" horiz-adv-x="409" d="M8 614v31h51v143h-51v31h51v385q0 127 155 127t155 -131v-291h-72v283q0 61 -14.5 84.5t-63.5 23.5t-68.5 -21.5t-19.5 -80.5v-379h166v-31h-166v-143h166v-31h-166v-374q0 -59 14.5 -84t63.5 -25t68.5 22.5t19.5 82.5v286h72v-293q0 -127 -155 -127t-155 131v381h-51z " />
<glyph unicode="&#x2122;" horiz-adv-x="550" d="M41 1401v33h133v-33h-41v-377h-51v377h-41zM266 1024v410h33l86 -273l88 273h33v-410h-51v250l-54 -164l2 -2h-34v2l-52 164v-250h-51z" />
<glyph unicode="&#xe000;" horiz-adv-x="1024" d="M0 0v1024h1024v-1024h-1024z" />
</font>
</defs>
</svg>
